<svg width="1280" height="360" viewBox="0 0 1280 360" fill="none" xmlns="http://www.w3.org/2000/svg">
  <rect width="1280" height="360" fill="#07110d"/>
  <path d="M0 287C96 238 174 240 268 257C374 276 451 328 566 291C681 254 711 168 834 145C967 120 1081 191 1280 91V360H0V287Z" fill="#0f2f21"/>
  <path d="M0 206C117 150 238 143 349 178C469 216 541 259 668 228C767 204 835 133 946 119C1052 106 1152 143 1280 91" stroke="#22c55e" stroke-width="3" stroke-opacity="0.55"/>
  <path d="M0 250C128 191 238 193 347 215C477 241 574 292 707 246C825 206 864 137 982 124C1090 113 1172 144 1280 105" stroke="#86efac" stroke-width="2" stroke-opacity="0.25"/>
  <circle cx="1064" cy="89" r="78" fill="#22c55e" fill-opacity="0.13"/>
  <circle cx="1064" cy="89" r="42" fill="#22c55e" fill-opacity="0.16"/>
  <circle cx="196" cy="88" r="112" fill="#16a34a" fill-opacity="0.12"/>
  <g opacity="0.18">
    <path d="M98 54H336" stroke="#bbf7d0"/>
    <path d="M98 86H284" stroke="#bbf7d0"/>
    <path d="M98 118H384" stroke="#bbf7d0"/>
    <path d="M98 150H250" stroke="#bbf7d0"/>
  </g>
  <rect x="792" y="208" width="318" height="84" rx="16" fill="#020617" fill-opacity="0.58" stroke="#22c55e" stroke-opacity="0.3"/>
  <circle cx="828" cy="250" r="9" fill="#22c55e"/>
  <rect x="852" y="232" width="216" height="11" rx="5.5" fill="#dcfce7" fill-opacity="0.76"/>
  <rect x="852" y="258" width="152" height="9" rx="4.5" fill="#86efac" fill-opacity="0.42"/>
  <text x="80" y="218" fill="#f8fafc" font-family="Inter, Segoe UI, Arial, sans-serif" font-size="54" font-weight="800">Hera Developer</text>
  <text x="84" y="262" fill="#bbf7d0" font-family="Inter, Segoe UI, Arial, sans-serif" font-size="24" font-weight="600">Laravel • React • Inertia • Automation</text>
</svg>
